<svg id="Layer_1" data-name="Layer 1" xmlns="http://www.w3.org/2000/svg" width="36.98" height="19.16" viewBox="0 0 36.98 19.16"><defs><style>.cls-1{fill:#e8560f;}</style></defs><title>logo__viu--sm-white</title><g id="Interacciones"><g id="Interacciones_Iconos-y-logos" data-name="Interacciones Iconos-y-logos"><g id="viu_2" data-name="viu 2"><g id="Logo_VIU-2" data-name="Logo VIU-2"><g id="Mask"><path id="path-1" class="cls-1" d="M9.54,19H5.47L0,5.05H4.91L7.5,13.57l2.59-8.52H15Zm27.39-.22H34.1l-.59-1a10.55,10.55,0,0,1-5.12,1.38c-4,0-5.15-2-5.15-4.62V5.05H28V13.9c0,1,.38,1.7,1.65,1.7a5.47,5.47,0,0,0,2.62-.71V5.05H37ZM22.05,15.36V18.9a8.76,8.76,0,0,1-1.35.1c-2.53,0-4.53-1.21-4.53-3.87V5.05h4.68v9.48C20.85,15.05,21.11,15.36,22.05,15.36ZM16.17,3.49V0h4.68V3.49Z"/></g></g></g></g></g></svg>
