<svg id="Layer_1" data-name="Layer 1" xmlns="http://www.w3.org/2000/svg" width="142.61" height="56" viewBox="0 0 142.61 56"><defs><style>.cls-1{fill:#fff;}.cls-2{fill:#e8560f;}</style></defs><title>logo__viu--lg-white</title><path class="cls-1" d="M64.84,43.45c-2.89,0-3.59,2-3.59,4.45s.7,4.45,3.59,4.45a6.94,6.94,0,0,0,2.83-.52v-1a6.57,6.57,0,0,1-2.83.48c-1.93,0-2.32-1.35-2.39-2.84h5.64V47.9C68.09,45.44,67.75,43.45,64.84,43.45Zm-2.39,4c0-1.54.41-3,2.39-3s2.06,1.44,2.06,3Z"/><rect class="cls-1" x="42" width="0.66" height="56"/><path class="cls-1" d="M61.83,28.66v6.21H63V28.72c0-1.65-.87-2.57-2.91-2.57a4.25,4.25,0,0,0-2.58.89l-.26-.72h-.66v8.55h1.19V27.76a4.13,4.13,0,0,1,2.31-.55C61.18,27.21,61.83,27.55,61.83,28.66Z"/><path class="cls-1" d="M56.63,17.81c1.95,0,4.77-.77,4.77-4.29V4.74H58.67v8.64c0,1.66-1.08,1.95-2,1.95s-2-.29-2-1.95V4.74H51.86v8.78C51.86,17,54.68,17.81,56.63,17.81Z"/><path class="cls-1" d="M58,44.15a4.53,4.53,0,0,0-2.39-.7c-2.76,0-3.51,2-3.51,4.45s.75,4.45,3.51,4.45a4.88,4.88,0,0,0,2.67-.88l.25.71h.67V39.35H58Zm0,6.59a4.5,4.5,0,0,1-2.39.55c-2,0-2.31-1.7-2.31-3.39s.26-3.39,2.31-3.39a4.5,4.5,0,0,1,2.39.55Z"/><rect class="cls-1" x="52.79" y="22.05" width="1.2" height="12.83"/><path class="cls-1" d="M74.35,8.16a1.63,1.63,0,1,0-1.62-1.62A1.6,1.6,0,0,0,74.35,8.16Z"/><path class="cls-1" d="M111.54,24.61a.86.86,0,0,0,0-1.71.86.86,0,1,0,0,1.71Z"/><path class="cls-1" d="M111.2,9V15.3a2.33,2.33,0,0,0,2.63,2.41,4.63,4.63,0,0,0,.79-.07V15.43c-.55,0-.71-.18-.71-.51V9Z"/><path class="cls-1" d="M112.56,8.16a1.63,1.63,0,1,0-1.62-1.62A1.6,1.6,0,0,0,112.56,8.16Z"/><path class="cls-1" d="M119.1,17.81a4,4,0,0,0,2.77-.92l.46.68H124V4.74h-2.74V9.33a4,4,0,0,0-2.13-.55c-2.23,0-3.32,1.37-3.32,4.52S116.87,17.81,119.1,17.81ZM120,11a2.38,2.38,0,0,1,1.21.36v3.87a2.38,2.38,0,0,1-1.21.36c-1.27,0-1.54-.82-1.54-2.29S118.75,11,120,11Z"/><path class="cls-1" d="M128.35,17.81a3.7,3.7,0,0,0,2.51-.89l.38.65h1.64V12c0-1.91-.58-3.23-3.66-3.23a9.06,9.06,0,0,0-3.08.56v2.3a8.58,8.58,0,0,1,3.08-.65c.74,0,1,.2,1,.59v.55l-1.55.16c-1.54.15-3.24.49-3.24,2.8A2.62,2.62,0,0,0,128.35,17.81Zm.74-4,1.14-.15v1.9a1.76,1.76,0,0,1-1.23.41.94.94,0,0,1-1-1C128,14.25,128.32,13.88,129.09,13.77Z"/><path class="cls-1" d="M109.52,14.9c0-1.78-.75-2.49-3.46-2.73-.56-.06-.85-.16-.85-.6s.43-.6,1.2-.6a7.29,7.29,0,0,1,2.75.55V9.22a7,7,0,0,0-2.86-.44c-2.63,0-3.76,1.16-3.76,2.91s.75,2.49,3.46,2.73c.56.05.85.16.85.6s-.39.6-1.26.6a8.35,8.35,0,0,1-3-.65v2.29a7.66,7.66,0,0,0,3.11.55C108.54,17.81,109.52,16.54,109.52,14.9Z"/><path class="cls-1" d="M91,17.81a8.83,8.83,0,0,0,3.22-.6V15.07a6.48,6.48,0,0,1-2.86.57c-1.33,0-1.92-.33-1.85-1.44h5c.22-2.68,0-5.42-3.7-5.42-2.65,0-4,1.44-4,4.51S88.14,17.81,91,17.81Zm-.15-7c1,0,1.25.75,1.09,1.7H89.47C89.47,11.45,89.88,10.83,90.81,10.83Z"/><path class="cls-1" d="M73,9V15.3a2.33,2.33,0,0,0,2.63,2.41,4.63,4.63,0,0,0,.79-.07V15.43c-.55,0-.71-.18-.71-.51V9Z"/><polygon class="cls-1" points="82.77 17.71 85.95 9.02 83.09 9.02 81.59 14.32 80.08 9.02 77.23 9.02 80.41 17.71 82.77 17.71"/><path class="cls-1" d="M98.86,11.53a3.29,3.29,0,0,1,1.82-.49,3.76,3.76,0,0,1,.83.07V8.9a2.3,2.3,0,0,0-.77-.12,3.9,3.9,0,0,0-2.63.85L97.77,9H96.13v8.55h2.73Z"/><path class="cls-1" d="M128.83,43.45a7,7,0,0,0-2.57.46v1a7.58,7.58,0,0,1,2.57-.43c1.59,0,2,.55,2,1.8v.48l-2.26.14c-2.24.13-3.05,1.21-3.05,2.66s.76,2.76,3,2.76a4.46,4.46,0,0,0,2.58-.86l.26.69h.66V46.33C132.06,44.62,131.4,43.45,128.83,43.45Zm2,7.15a4.17,4.17,0,0,1-2.28.69c-1.63,0-1.81-.93-1.81-1.7,0-1,.53-1.62,1.74-1.74l2.35-.22Z"/><path class="cls-1" d="M108.9,34.62v-1a7.34,7.34,0,0,1-2.56.39c-2.16,0-2.4-1.69-2.4-3.38s.24-3.39,2.4-3.39a7.34,7.34,0,0,1,2.56.39v-1a6.61,6.61,0,0,0-2.55-.43c-2.89,0-3.6,2-3.6,4.45s.71,4.44,3.6,4.44A6.8,6.8,0,0,0,108.9,34.62Z"/><path class="cls-1" d="M108.8,43.45a4.23,4.23,0,0,0-2.58.89l-.26-.72h-.67v8.56h1.2V45.06a4.1,4.1,0,0,1,2.31-.55c1.06,0,1.71.35,1.71,1.46v6.21h1.2V46C111.71,44.38,110.84,43.45,108.8,43.45Z"/><path class="cls-1" d="M100,43.45c-2.89,0-3.59,2-3.59,4.45s.7,4.45,3.59,4.45a6.86,6.86,0,0,0,2.82-.52v-1a6.49,6.49,0,0,1-2.82.48c-1.93,0-2.32-1.35-2.39-2.84h5.64V47.9C103.24,45.44,102.9,43.45,100,43.45Zm-2.39,4c.05-1.54.41-3,2.39-3S102,46,102,47.47Z"/><path class="cls-1" d="M112.12,33.3v-7H111v6.84c0,1.37.65,1.89,1.88,1.89v-1C112.31,34.07,112.12,33.9,112.12,33.3Z"/><path class="cls-1" d="M93.9,50.6V39.35H92.74V50.47c0,1.36.65,1.88,1.88,1.88v-1C94.09,51.37,93.9,51.2,93.9,50.6Z"/><path class="cls-1" d="M99.87,34.19l.26.68h.67V29c0-1.71-.67-2.87-3.24-2.87a7,7,0,0,0-2.56.46v1a7.56,7.56,0,0,1,2.56-.43c1.59,0,2,.55,2,1.8v.48l-2.26.13c-2.24.14-3,1.22-3,2.67s.75,2.75,3,2.75A4.49,4.49,0,0,0,99.87,34.19Zm-4.36-1.9c0-1,.53-1.62,1.75-1.74l2.34-.23v3a4.13,4.13,0,0,1-2.28.68C95.7,34,95.51,33.06,95.51,32.29Z"/><path class="cls-1" d="M123.42,41.06a.86.86,0,1,0-.85.85A.85.85,0,0,0,123.42,41.06Z"/><path class="cls-1" d="M113.68,47.9c0,2.46.71,4.45,3.6,4.45a6.81,6.81,0,0,0,2.55-.43v-1a7.08,7.08,0,0,1-2.56.4c-2.16,0-2.4-1.7-2.4-3.39s.24-3.39,2.4-3.39a7.08,7.08,0,0,1,2.56.4v-1a6.81,6.81,0,0,0-2.55-.43C114.39,43.45,113.68,45.44,113.68,47.9Z"/><path class="cls-1" d="M123.15,50.6v-7H122v6.85c0,1.36.65,1.88,1.88,1.88v-1C123.34,51.37,123.15,51.2,123.15,50.6Z"/><path class="cls-1" d="M118.1,26.15c-2.92,0-3.59,1.83-3.59,4.45S115.18,35,118.1,35s3.6-1.83,3.6-4.44S121.05,26.15,118.1,26.15Zm0,7.83c-2.25,0-2.39-1.45-2.39-3.38s.14-3.39,2.39-3.39,2.4,1.45,2.4,3.39S120.33,34,118.1,34Z"/><polygon class="cls-1" points="77.42 50.4 73.77 39.35 72.45 39.35 76.99 52.35 77.84 52.35 82.38 39.35 81.06 39.35 77.42 50.4"/><path class="cls-1" d="M87,43.45a7,7,0,0,0-2.56.46v1A7.47,7.47,0,0,1,87,44.51c1.59,0,2,.55,2,1.8v.48l-2.26.14c-2.24.13-3.05,1.21-3.05,2.66s.76,2.76,3,2.76a4.46,4.46,0,0,0,2.58-.86l.26.69h.66V46.33C90.24,44.62,89.58,43.45,87,43.45Zm2,7.15a4.14,4.14,0,0,1-2.28.69c-1.62,0-1.81-.93-1.81-1.7,0-1,.53-1.62,1.74-1.74l2.35-.22Z"/><path class="cls-1" d="M84.7,26.24a5.3,5.3,0,0,0-1-.09,4.64,4.64,0,0,0-2.76.89l-.26-.72H80v8.55h1.19V27.76a4.67,4.67,0,0,1,2.49-.55,3.13,3.13,0,0,1,1,.14Z"/><path class="cls-1" d="M128.86,28.66v6.21h1.2V28.72c0-1.65-.87-2.57-2.91-2.57a4.25,4.25,0,0,0-2.58.89l-.26-.72h-.66v8.55h1.19V27.76a4.13,4.13,0,0,1,2.31-.55C128.21,27.21,128.86,27.55,128.86,28.66Z"/><path class="cls-1" d="M77.62,34.53v-1A6.68,6.68,0,0,1,74.8,34c-1.93,0-2.33-1.35-2.4-2.84h5.65V30.6c0-2.47-.34-4.45-3.25-4.45s-3.59,2-3.59,4.45S71.91,35,74.8,35A6.87,6.87,0,0,0,77.62,34.53ZM74.8,27.21c2,0,2,1.44,2,3H72.4C72.45,28.63,72.81,27.21,74.8,27.21Z"/><path class="cls-1" d="M68.14,8.78a5.85,5.85,0,0,0-3,.85L64.83,9H63.18v8.55h2.74V11.45A3,3,0,0,1,67.44,11c.74,0,1,.43,1,1.06v5.51h2.74V11.65C71.14,10,70.47,8.78,68.14,8.78Z"/><path class="cls-1" d="M67.2,23.59,66,23.93v2.31l-1.71.49v.53H66v5.46c0,1.67,1.31,2.33,2.73,2.33a3.8,3.8,0,0,0,.77-.07V34l-.66,0c-1.08,0-1.65-.43-1.65-1.47V27.26h2.65v-.94H67.2Z"/><path class="cls-1" d="M135.11,26.15a7,7,0,0,0-2.57.46v1a7.58,7.58,0,0,1,2.57-.43c1.59,0,2,.55,2,1.8v.48l-2.26.13c-2.24.14-3,1.22-3,2.67s.75,2.75,3,2.75a4.52,4.52,0,0,0,2.59-.85l.25.68h.67V29C138.34,27.31,137.67,26.15,135.11,26.15Zm2,7.15a4.1,4.1,0,0,1-2.27.68c-1.63,0-1.82-.92-1.82-1.69,0-1,.53-1.62,1.75-1.74l2.34-.23Z"/><path class="cls-1" d="M89.61,26.15A4.23,4.23,0,0,0,87,27l-.26-.72H86.1v8.55h1.2V27.76a4.1,4.1,0,0,1,2.31-.55c1.06,0,1.71.34,1.71,1.45v6.21h1.2V28.72C92.52,27.07,91.65,26.15,89.61,26.15Z"/><path class="cls-1" d="M142.49,17.57V4.74h-2.73V9.33a4,4,0,0,0-2.14-.55c-2.22,0-3.32,1.37-3.32,4.52s1.1,4.51,3.32,4.51a4,4,0,0,0,2.77-.92l.46.68Zm-2.73-2.34a2.39,2.39,0,0,1-1.22.36c-1.26,0-1.54-.82-1.54-2.29s.28-2.3,1.54-2.3a2.39,2.39,0,0,1,1.22.36Z"/><path class="cls-1" d="M141.9,33.3V22.05h-1.17V33.16c0,1.37.65,1.88,1.88,1.88v-1C142.08,34.07,141.9,33.9,141.9,33.3Z"/><polygon class="cls-2" points="6.51 12.7 4.26 4.79 0 4.79 4.75 17.76 8.27 17.76 13.02 4.79 8.76 4.79 6.51 12.7"/><rect class="cls-2" x="14.22" width="4.06" height="3.24"/><path class="cls-2" d="M28.34,13.93a4.54,4.54,0,0,1-2.28.66C25,14.59,24.63,14,24.63,13V4.79H20.55v8.83c0,2.45,1,4.29,4.47,4.29a8.74,8.74,0,0,0,4.44-1.28l.51.92h2.45V4.79H28.34Z"/><path class="cls-2" d="M18.28,13.6V4.79H14.22v9.37c0,2.47,1.74,3.6,3.93,3.6a6.61,6.61,0,0,0,1.18-.11V14.36C18.51,14.36,18.28,14.08,18.28,13.6Z"/></svg>
